<svg width="330" height="377" viewBox="0 0 330 377" fill="none" xmlns="http://www.w3.org/2000/svg">
<path d="M129.645 176.719H200.335V221.252C200.335 225.064 198.82 228.72 196.125 231.415C193.429 234.111 189.773 235.625 185.961 235.625H144.019C140.207 235.625 136.551 234.111 133.855 231.415C131.16 228.72 129.645 225.064 129.645 221.252V176.719Z" fill="#FF7400"/>
<path d="M326.515 121.229C325.42 120.125 324.117 119.248 322.681 118.65C321.245 118.052 319.705 117.744 318.15 117.744C316.595 117.744 315.055 118.052 313.619 118.65C312.184 119.248 310.88 120.125 309.785 121.229L266.193 164.938H63.7864L20.1947 121.229C17.9762 119.011 14.9672 117.764 11.8298 117.764C8.69231 117.764 5.68337 119.011 3.46486 121.229C1.24635 123.448 3.30584e-08 126.456 0 129.594C-3.30584e-08 132.731 1.24635 135.74 3.46486 137.958L47.1744 181.549V341.656C47.1744 351.03 50.8982 360.02 57.5266 366.648C64.155 373.276 73.1451 377 82.5191 377H247.461C256.835 377 265.825 373.276 272.453 366.648C279.082 360.02 282.805 351.03 282.805 341.656V181.549L326.515 137.958C327.619 136.863 328.496 135.56 329.094 134.125C329.692 132.689 330 131.149 330 129.594C330 128.038 329.692 126.499 329.094 125.063C328.496 123.627 327.619 122.324 326.515 121.229ZM259.242 341.656C259.242 344.781 258.001 347.777 255.792 349.987C253.582 352.196 250.585 353.438 247.461 353.438H82.5191C79.3944 353.438 76.3977 352.196 74.1883 349.987C71.9788 347.777 70.7375 344.781 70.7375 341.656V188.5H259.242V341.656Z" fill="white"/>
<path d="M129.645 329.875H106.082C102.958 329.875 99.9608 328.634 97.7514 326.424C95.5419 324.215 94.3006 321.218 94.3006 318.094C94.3006 314.969 95.5419 311.973 97.7514 309.763C99.9608 307.554 102.958 306.312 106.082 306.312H129.645C132.77 306.312 135.767 307.554 137.976 309.763C140.186 311.973 141.427 314.969 141.427 318.094C141.427 321.218 140.186 324.215 137.976 326.424C135.767 328.634 132.77 329.875 129.645 329.875Z" fill="white"/>
<path d="M82.5191 117.812C80.9686 117.821 79.4315 117.524 77.9961 116.938C76.5606 116.352 75.255 115.488 74.1542 114.396L50.5911 90.8334C48.3726 88.615 47.1262 85.6061 47.1262 82.4688C47.1262 79.3314 48.3726 76.3225 50.5911 74.1041C52.8096 71.8856 55.8185 70.6393 58.956 70.6393C62.0934 70.6393 65.1024 71.8856 67.3209 74.1041L90.884 97.6666C91.9883 98.7618 92.8647 100.065 93.4629 101.5C94.061 102.936 94.3689 104.476 94.3689 106.031C94.3689 107.587 94.061 109.126 93.4629 110.562C92.8647 111.998 91.9883 113.301 90.884 114.396C89.7831 115.488 88.4775 116.352 87.0421 116.938C85.6067 117.524 84.0696 117.821 82.5191 117.812Z" fill="white"/>
<path d="M247.461 117.812C245.91 117.821 244.373 117.524 242.938 116.938C241.502 116.352 240.197 115.488 239.096 114.396C237.992 113.301 237.115 111.998 236.517 110.562C235.919 109.126 235.611 107.587 235.611 106.031C235.611 104.476 235.919 102.936 236.517 101.5C237.115 100.065 237.992 98.7618 239.096 97.6666L262.659 74.1041C264.878 71.8856 267.886 70.6393 271.024 70.6393C274.161 70.6393 277.17 71.8856 279.389 74.1041C281.607 76.3225 282.854 79.3314 282.854 82.4688C282.854 85.6061 281.607 88.615 279.389 90.8334L255.826 114.396C254.725 115.488 253.419 116.352 251.984 116.938C250.548 117.524 249.011 117.821 247.461 117.812Z" fill="white"/>
<path d="M235.679 33.3409V39.2316C235.687 44.4267 234.477 49.5513 232.145 54.1937C219.189 80.2271 198.093 101.323 172.059 114.278L164.99 117.812L157.921 114.278C131.887 101.323 110.791 80.2271 97.8351 54.1937C95.5033 49.5513 94.2927 44.4267 94.3006 39.2316V33.3409C94.3006 24.4984 97.8134 16.018 104.066 9.76533C110.319 3.5127 118.8 0 127.642 0C136.483 0.00694897 144.958 3.5242 151.206 9.77844L164.99 23.5625L178.774 9.77844C185.022 3.5242 193.497 0.00694897 202.337 0C211.18 0 219.661 3.5127 225.914 9.76533C232.166 16.018 235.679 24.4984 235.679 33.3409Z" fill="#FF7400"/>
</svg>
